<svg width="24" height="24" viewBox="0 0 24 24" fill="none" xmlns="http://www.w3.org/2000/svg">
<path d="M12 0C5.38327 0 0 5.38327 0 12C0 18.6167 5.38327 24 12 24C18.6167 24 24 18.6167 24 12C24 5.38327 18.6167 0 12 0ZM12 19.3846C10.7942 19.3846 9.83538 18.8735 9.70673 17.7935C9.70332 17.7612 9.70676 17.7286 9.71682 17.6977C9.72688 17.6668 9.74334 17.6384 9.76512 17.6144C9.7869 17.5903 9.81351 17.5711 9.84321 17.558C9.87292 17.545 9.90504 17.5383 9.9375 17.5385H14.0596C14.0924 17.5382 14.1249 17.545 14.1548 17.5583C14.1848 17.5716 14.2116 17.5911 14.2334 17.6155C14.2553 17.64 14.2716 17.6688 14.2815 17.7001C14.2913 17.7314 14.2943 17.7644 14.2904 17.7969C14.1433 18.8567 13.1931 19.3846 12 19.3846ZM17.6538 16.6154H6.34615C5.66308 16.6154 5.30769 15.75 5.70058 15.2885C6.64269 14.1727 7.30846 13.7037 7.30846 10.6269C7.30846 7.8075 8.79346 6.80712 10.02 6.31904C10.1044 6.28386 10.1805 6.2314 10.2434 6.16502C10.3063 6.09864 10.3546 6.01983 10.3852 5.93365C10.5981 5.22692 11.2004 4.61538 12 4.61538C12.7996 4.61538 13.4008 5.22692 13.6154 5.93423C13.6462 6.02039 13.6946 6.09918 13.7576 6.16554C13.8206 6.2319 13.8967 6.28438 13.9812 6.31961C15.2048 6.80654 16.6927 7.80865 16.6927 10.6275C16.6927 13.7042 17.3579 14.1733 18.3 15.289C18.6888 15.75 18.3329 16.6154 17.6538 16.6154Z" fill="#C9CBCD"/>
</svg>
