<svg width="24" height="25" viewBox="0 0 24 25" fill="none" xmlns="http://www.w3.org/2000/svg">
<path d="M12 8.03641C11.1523 8.03641 10.3236 8.28779 9.61878 8.75875C8.91394 9.22971 8.36458 9.8991 8.04017 10.6823C7.71577 11.4655 7.63089 12.3273 7.79627 13.1587C7.96165 13.9901 8.36986 14.7538 8.96928 15.3532C9.5687 15.9526 10.3324 16.3608 11.1638 16.5262C11.9952 16.6916 12.857 16.6067 13.6402 16.2823C14.4234 15.9579 15.0928 15.4086 15.5638 14.7037C16.0347 13.9989 16.2861 13.1702 16.2861 12.3225C16.2827 11.1868 15.83 10.0986 15.027 9.29552C14.2239 8.49246 13.1357 8.0398 12 8.03641ZM21.2537 12.3225C21.2514 12.723 21.2221 13.1229 21.1658 13.5194L23.7744 15.5617C23.888 15.6555 23.9646 15.7867 23.9904 15.9317C24.0162 16.0768 23.9896 16.2263 23.9153 16.3536L21.4476 20.6139C21.3726 20.7401 21.2555 20.8357 21.1169 20.884C20.9784 20.9323 20.8272 20.9302 20.69 20.8781L17.6228 19.6458C16.9841 20.1376 16.2852 20.5458 15.543 20.8604L15.0844 24.1167C15.0587 24.2626 14.9832 24.395 14.8707 24.4914C14.7582 24.5877 14.6158 24.642 14.4677 24.645H9.53229C9.38691 24.6422 9.24678 24.5901 9.13478 24.4974C9.02278 24.4047 8.94553 24.2767 8.91563 24.1344L8.45701 20.8781C7.71277 20.5671 7.01333 20.1583 6.37719 19.6624L3.30996 20.8947C3.17285 20.9469 3.02173 20.949 2.88318 20.9008C2.74462 20.8526 2.6275 20.7571 2.5524 20.6311L0.0846817 16.3712C0.0104027 16.244 -0.0162082 16.0945 0.0096046 15.9494C0.0354174 15.8044 0.111972 15.6732 0.225587 15.5794L2.83421 13.5371C2.77857 13.1345 2.74922 12.7288 2.74634 12.3225C2.74857 11.922 2.77793 11.5221 2.83421 11.1256L0.225587 9.08329C0.111972 8.98947 0.0354174 8.85832 0.0096046 8.71326C-0.0162082 8.56819 0.0104027 8.41868 0.0846817 8.29143L2.5524 4.03106C2.62741 3.90494 2.7445 3.80932 2.88307 3.761C3.02163 3.71269 3.17279 3.71479 3.30996 3.76693L6.37719 4.99918C7.01588 4.50736 7.71482 4.0992 8.45701 3.78461L8.91563 0.52826C8.94129 0.382399 9.01682 0.249978 9.12929 0.153626C9.24177 0.0572747 9.38421 0.0029728 9.53229 0H14.4677C14.6131 0.00282964 14.7532 0.0548572 14.8652 0.147589C14.9772 0.240322 15.0545 0.368281 15.0844 0.51058L15.543 3.76693C16.2882 4.07766 16.9885 4.48648 17.6255 4.98257L20.69 3.75032C20.8271 3.69814 20.9783 3.69596 21.1168 3.74417C21.2554 3.79238 21.3725 3.88789 21.4476 4.01392L23.9153 8.27429C23.9896 8.40154 24.0162 8.55105 23.9904 8.69611C23.9646 8.84117 23.888 8.97233 23.7744 9.06614L21.1658 11.1085C21.2214 11.5108 21.2508 11.9163 21.2537 12.3225Z" fill="#C9CBCD"/>
</svg>
