<svg width="27" height="31" viewBox="0 0 27 31" fill="none" xmlns="http://www.w3.org/2000/svg">
<path d="M14.41 1.80267L13.9085 2.57766L14.41 1.80267ZM24.296 8.1995L23.7945 8.97449L24.296 8.1995ZM24.4159 10.1166V26.9211H26.262V10.1166H24.4159ZM1.92308 26.9211V10.1166H0.0769231V26.9211H1.92308ZM2.54443 8.97449L12.4304 2.57766L11.4275 1.02768L1.5415 7.42452L2.54443 8.97449ZM13.9085 2.57766L23.7945 8.97449L24.7974 7.42452L14.9114 1.02768L13.9085 2.57766ZM23.0555 28.2815H13.1695V30.1276H23.0555V28.2815ZM13.1695 28.2815H3.28345V30.1276H13.1695V28.2815ZM12.4304 2.57766C12.8802 2.28666 13.4588 2.28666 13.9085 2.57766L14.9114 1.02768C13.8514 0.341784 12.4875 0.341785 11.4275 1.02768L12.4304 2.57766ZM0.0769231 26.9211C0.0769231 28.692 1.51254 30.1276 3.28345 30.1276V28.2815C2.53214 28.2815 1.92308 27.6724 1.92308 26.9211H0.0769231ZM24.4159 26.9211C24.4159 27.6724 23.8068 28.2815 23.0555 28.2815V30.1276C24.8264 30.1276 26.262 28.692 26.262 26.9211H24.4159ZM26.262 10.1166C26.262 9.02894 25.7106 8.01541 24.7974 7.42452L23.7945 8.97449C24.1819 9.22518 24.4159 9.65517 24.4159 10.1166H26.262ZM1.92308 10.1166C1.92308 9.65517 2.157 9.22518 2.54443 8.97449L1.5415 7.42452C0.628311 8.0154 0.0769231 9.02893 0.0769231 10.1166H1.92308Z" fill="#007AFF"/>
</svg>
