<svg width="19" height="26" viewBox="0 0 19 26" fill="none" xmlns="http://www.w3.org/2000/svg">
<path d="M6.00257 25.0956C5.86242 25.0957 5.72395 25.0651 5.59688 25.006C5.46981 24.9469 5.35723 24.8607 5.26704 24.7534C5.17686 24.6461 5.11126 24.5204 5.07485 24.385C5.03845 24.2497 5.03213 24.108 5.05632 23.97V23.9643L6.52588 15.8945H0.836372C0.678449 15.8945 0.523756 15.8497 0.390187 15.7655C0.256618 15.6812 0.14963 15.5609 0.0815971 15.4184C0.0135646 15.2758 -0.0127328 15.117 0.00574708 14.9601C0.0242269 14.8033 0.0867287 14.6549 0.186023 14.5321L11.644 0.36766C11.7744 0.202106 11.9555 0.0838242 12.1595 0.0309034C12.3635 -0.0220175 12.5792 -0.00666464 12.7736 0.0746141C12.9681 0.155893 13.1306 0.298624 13.2362 0.48098C13.3419 0.663337 13.3849 0.875281 13.3587 1.0844C13.3587 1.10009 13.3545 1.11525 13.3519 1.13093L11.8771 9.20279H17.5656C17.7235 9.20281 17.8782 9.24753 18.0118 9.33179C18.1454 9.41604 18.2524 9.53639 18.3204 9.67891C18.3884 9.82143 18.4147 9.98029 18.3962 10.1371C18.3778 10.294 18.3153 10.4424 18.216 10.5652L6.75643 24.7296C6.66639 24.8434 6.55184 24.9354 6.42132 24.9987C6.2908 25.0621 6.14766 25.0952 6.00257 25.0956Z" fill="#C9CBCD"/>
</svg>
