<svg width="18" height="25" viewBox="0 0 18 25" fill="none" xmlns="http://www.w3.org/2000/svg">
<path d="M8.75 0C3.91945 0 0 3.52789 0 7.875C0 14.875 8.75 24.5 8.75 24.5C8.75 24.5 17.5 14.875 17.5 7.875C17.5 3.52789 13.5805 0 8.75 0ZM8.75 12.25C8.05777 12.25 7.38108 12.0447 6.8055 11.6601C6.22993 11.2756 5.78133 10.7289 5.51642 10.0894C5.25151 9.44985 5.1822 8.74612 5.31725 8.06718C5.4523 7.38825 5.78564 6.76461 6.27513 6.27513C6.76461 5.78564 7.38825 5.4523 8.06718 5.31725C8.74612 5.1822 9.44985 5.25151 10.0894 5.51642C10.7289 5.78133 11.2756 6.22993 11.6601 6.8055C12.0447 7.38108 12.25 8.05777 12.25 8.75C12.249 9.67795 11.8799 10.5676 11.2238 11.2238C10.5676 11.8799 9.67795 12.249 8.75 12.25Z" fill="#C9CBCD"/>
</svg>
